<?xml version="1.0" encoding="utf-8"?>
<!-- Generator: Adobe Illustrator 16.0.0, SVG Export Plug-In . SVG Version: 6.00 Build 0)  -->
<!DOCTYPE svg PUBLIC "-//W3C//DTD SVG 1.1//EN" "http://www.w3.org/Graphics/SVG/1.1/DTD/svg11.dtd">
<svg version="1.1" id="Layer_1" xmlns="http://www.w3.org/2000/svg" xmlns:xlink="http://www.w3.org/1999/xlink" x="0px" y="0px"
	 width="185px" height="64.943px" viewBox="0 0 185 64.943" enable-background="new 0 0 185 64.943" xml:space="preserve">
<g id="XMLID_1389_">
	<path id="XMLID_1997_" fill="#FFFFFF" d="M53.148,31.365c0-1.234-0.645-2.317-1.616-2.931l0-0.001
		c-1.316-0.817-2.192-2.274-2.192-3.937c0-1.01,0.323-1.944,0.872-2.705l-0.006-0.006c0.392-0.561,0.622-1.244,0.622-1.98
		c0-0.876-0.325-1.676-0.861-2.286c-0.672-0.81-5.574-7.028-18.403-14.646c-0.714-0.45-1.56-0.711-2.467-0.711
		c-1.029,0-1.979,0.335-2.748,0.903V3.062l-7.736,5.569L18.598,8.64l0,0c-0.722,0.464-1.581,0.733-2.502,0.733l-5.789,0.001
		c-1.914,0-3.466,1.552-3.466,3.466L6.836,59.664c0,0.844,0.301,1.616,0.802,2.217c0.478,0.633,1.78,1.746,3.133,2.524
		c0.536,0.341,1.173,0.538,1.855,0.538c1.914,0,3.465-1.552,3.465-3.466l0.014-9.262c0-1.914,1.551-3.466,3.465-3.466
		c0.543,0,1.057,0.125,1.514,0.348l0.01,0.005c2.791,1.181,5.86,1.834,9.081,1.834c11.32,0,20.756-8.065,22.876-18.763
		C53.115,31.915,53.148,31.644,53.148,31.365z"/>
	<g id="XMLID_1538_">
		<g id="XMLID_1539_">
			<g>
				<g id="XMLID_158_">
					<g id="XMLID_159_">
						<g id="XMLID_160_">
							<path id="XMLID_181_" fill="#FFFFFF" d="M67.04,35.108c0-0.507,0.317-0.845,0.845-0.845h4.438
								c2.874,0,4.606,1.732,4.606,4.289s-1.733,4.29-4.606,4.29h-3.275c-0.084,0-0.127,0.042-0.127,0.127v4.754
								c0,0.634-0.38,1.015-0.93,1.015c-0.57,0-0.951-0.381-0.951-1.015V35.108z M75.07,38.553c0-1.563-1.036-2.535-2.811-2.535
								h-3.212c-0.084,0-0.127,0.042-0.127,0.127v4.817c0,0.085,0.042,0.127,0.127,0.127h3.212
								C74.034,41.089,75.07,40.117,75.07,38.553z"/>
							<path id="XMLID_179_" fill="#FFFFFF" d="M78.345,47.787v-8.431c0-0.592,0.38-0.951,0.887-0.951
								c0.507,0,0.888,0.359,0.888,0.951v0.465h0.021c0.423-0.909,1.353-1.543,2.599-1.543c0.697,0,1.162,0.169,1.5,0.359
								c0.359,0.19,0.507,0.465,0.507,0.761c0,0.507-0.359,0.888-0.887,0.888c-0.127,0-0.296-0.043-0.444-0.105
								c-0.38-0.148-0.74-0.254-1.162-0.254c-1.521,0-2.134,1.268-2.134,2.958v4.902c0,0.592-0.38,0.951-0.888,0.951
								C78.726,48.738,78.345,48.379,78.345,47.787z"/>
							<path id="XMLID_176_" fill="#FFFFFF" d="M85.762,46.139c-0.232-0.697-0.338-1.395-0.338-2.577
								c0-1.163,0.105-1.86,0.338-2.558c0.549-1.732,2.029-2.726,3.994-2.726c1.965,0,3.444,0.993,3.994,2.726
								c0.232,0.697,0.338,1.395,0.338,2.558c0,1.183-0.105,1.88-0.338,2.577c-0.55,1.712-2.029,2.727-3.994,2.727
								C87.791,48.865,86.312,47.851,85.762,46.139z M92.038,45.632c0.169-0.55,0.232-1.099,0.232-2.07
								c0-0.973-0.063-1.501-0.232-2.05c-0.338-1.015-1.162-1.585-2.282-1.585c-1.12,0-1.944,0.57-2.282,1.585
								c-0.169,0.549-0.232,1.077-0.232,2.05c0,0.972,0.063,1.521,0.232,2.07c0.338,1.015,1.163,1.585,2.282,1.585
								C90.876,47.217,91.7,46.646,92.038,45.632z"/>
							<path id="XMLID_174_" fill="#FFFFFF" d="M98.166,47.64l-3.064-7.945c-0.063-0.169-0.084-0.296-0.084-0.444
								c0-0.465,0.338-0.845,0.866-0.845c0.423,0,0.697,0.253,0.845,0.634l2.621,7.037h0.042l2.557-7.037
								c0.148-0.381,0.423-0.634,0.846-0.634c0.528,0,0.866,0.38,0.866,0.845c0,0.148-0.021,0.275-0.084,0.444l-3.086,7.945
								c-0.316,0.824-0.592,1.099-1.162,1.099S98.483,48.464,98.166,47.64z"/>
							<path id="XMLID_171_" fill="#FFFFFF" d="M105.033,35.32c0-0.655,0.529-1.163,1.162-1.163c0.634,0,1.163,0.508,1.163,1.163
								c0,0.633-0.529,1.162-1.163,1.162C105.563,36.482,105.033,35.953,105.033,35.32z M105.309,39.356
								c0-0.592,0.38-0.951,0.887-0.951c0.508,0,0.888,0.359,0.888,0.951v8.431c0,0.592-0.38,0.951-0.888,0.951
								c-0.507,0-0.887-0.359-0.887-0.951V39.356z"/>
							<path id="XMLID_169_" fill="#FFFFFF" d="M109.703,39.356c0-0.592,0.381-0.951,0.888-0.951s0.888,0.359,0.888,0.951v0.296
								h0.021c0.486-0.782,1.458-1.374,2.832-1.374c2.197,0,3.508,1.5,3.508,3.804v5.705c0,0.592-0.38,0.951-0.888,0.951
								c-0.507,0-0.888-0.359-0.888-0.951v-5.282c0-1.628-0.739-2.578-2.261-2.578c-1.373,0-2.324,0.972-2.324,2.472v5.389
								c0,0.592-0.381,0.951-0.888,0.951s-0.888-0.359-0.888-0.951V39.356z"/>
							<path id="XMLID_167_" fill="#FFFFFF" d="M120.163,46.139c-0.19-0.612-0.317-1.437-0.317-2.577
								c0-1.12,0.127-1.944,0.317-2.558c0.57-1.754,2.05-2.726,3.993-2.726c1.521,0,2.6,0.655,3.233,1.479
								c0.169,0.232,0.254,0.423,0.254,0.654c0,0.444-0.338,0.782-0.782,0.782c-0.316,0-0.549-0.169-0.781-0.423
								c-0.465-0.507-1.015-0.845-1.924-0.845c-1.099,0-1.922,0.528-2.261,1.585c-0.169,0.527-0.232,1.162-0.232,2.05
								c0,0.908,0.063,1.542,0.232,2.07c0.339,1.057,1.162,1.585,2.261,1.585c0.909,0,1.459-0.338,1.924-0.846
								c0.232-0.253,0.465-0.422,0.781-0.422c0.444,0,0.782,0.338,0.782,0.781c0,0.232-0.085,0.423-0.254,0.655
								c-0.634,0.824-1.712,1.479-3.233,1.479C122.213,48.865,120.733,47.893,120.163,46.139z"/>
							<path id="XMLID_164_" fill="#FFFFFF" d="M129.418,35.32c0-0.655,0.528-1.163,1.162-1.163s1.162,0.508,1.162,1.163
								c0,0.633-0.528,1.162-1.162,1.162S129.418,35.953,129.418,35.32z M129.692,39.356c0-0.592,0.381-0.951,0.888-0.951
								c0.508,0,0.888,0.359,0.888,0.951v8.431c0,0.592-0.38,0.951-0.888,0.951c-0.507,0-0.888-0.359-0.888-0.951V39.356z"/>
							<path id="XMLID_161_" fill="#FFFFFF" d="M142.266,47.893c0,0.486-0.38,0.846-0.908,0.846c-0.317,0-0.57-0.147-0.782-0.443
								l-0.401-0.635h-0.021c-0.676,0.761-1.627,1.205-3.106,1.205c-2.261,0-3.571-1.12-3.571-3.043
								c0-2.092,1.438-3.128,3.952-3.128h2.303c0.085,0,0.127-0.042,0.127-0.127v-0.485c0-1.416-0.654-2.219-2.43-2.219
								c-0.782,0-1.585,0.254-2.071,0.507c-0.169,0.085-0.359,0.147-0.507,0.147c-0.465,0-0.761-0.295-0.761-0.76
								c0-0.275,0.127-0.55,0.423-0.719c0.634-0.423,1.69-0.761,3.085-0.761c2.705,0,3.973,1.289,3.973,3.782v3.635
								c0,0.528,0.042,0.74,0.19,1.035l0.359,0.655C142.202,47.534,142.266,47.724,142.266,47.893z M139.856,45.357v-1.12
								c0-0.085-0.042-0.127-0.127-0.127h-2.028c-1.732,0-2.515,0.507-2.515,1.648c0,1.057,0.761,1.585,2.113,1.585
								C138.863,47.344,139.856,46.604,139.856,45.357z"/>
						</g>
					</g>
				</g>
			</g>
		</g>
	</g>
	<g id="XMLID_1390_">
		<path id="XMLID_1534_" fill="#FFFFFF" d="M67.041,17.224c0-0.824,0.507-1.373,1.352-1.373h4.457c3.125,0,4.583,1.542,4.583,3.822
			c0,1.542-0.697,2.535-1.668,3.063v0.042c0.95,0.38,1.922,1.542,1.922,3.252c0,2.83-1.879,4.182-4.984,4.182h-4.309
			c-0.845,0-1.352-0.528-1.352-1.352V17.224z M72.447,21.723c1.183,0,1.9-0.612,1.9-1.689s-0.697-1.668-1.9-1.668h-2.175
			c-0.084,0-0.127,0.042-0.127,0.126v3.104c0,0.084,0.042,0.127,0.127,0.127H72.447z M70.272,27.699h2.344
			c1.267,0,1.964-0.676,1.964-1.816c0-1.077-0.697-1.774-1.964-1.774h-2.344c-0.084,0-0.127,0.042-0.127,0.127v3.337
			C70.145,27.657,70.188,27.699,70.272,27.699z"/>
		<path id="XMLID_1532_" fill="#FFFFFF" d="M85.393,29.262h-0.021c-0.507,0.655-1.394,1.183-2.703,1.183
			c-2.26,0-3.421-1.584-3.421-3.801v-5.216c0-0.972,0.634-1.563,1.5-1.563c0.845,0,1.458,0.591,1.458,1.563v4.646
			c0,1.119,0.507,1.858,1.563,1.858c1.035,0,1.563-0.739,1.563-1.858v-4.646c0-0.972,0.612-1.563,1.479-1.563
			c0.845,0,1.478,0.591,1.478,1.563v7.349c0,0.972-0.612,1.563-1.478,1.563C86.111,30.339,85.562,29.938,85.393,29.262z"/>
		<path id="XMLID_1501_" fill="#FFFFFF" d="M90.25,27.53c-0.211-0.633-0.338-1.373-0.338-2.429c0-1.077,0.106-1.816,0.317-2.45
			c0.613-1.858,2.239-2.893,4.414-2.893c2.259,0,3.823,1.056,4.414,2.872c0.232,0.718,0.339,1.436,0.339,2.386
			c0,0.57-0.359,0.972-0.972,0.972h-5.428c-0.085,0-0.127,0.042-0.127,0.126c0,0.211,0.042,0.401,0.105,0.592
			c0.274,0.866,1.056,1.33,2.112,1.33c0.697,0,1.373-0.232,1.921-0.528c0.359-0.211,0.719-0.317,1.014-0.317
			c0.613,0,1.078,0.465,1.078,1.098c0,0.444-0.211,0.803-0.592,1.056c-0.972,0.676-2.112,1.098-3.696,1.098
			C92.447,30.445,90.842,29.368,90.25,27.53z M96.354,24.024c0.085,0,0.127-0.042,0.127-0.126c0-0.338-0.042-0.549-0.105-0.76
			c-0.232-0.718-0.866-1.119-1.711-1.119s-1.457,0.401-1.689,1.119c-0.063,0.211-0.105,0.422-0.105,0.76
			c0,0.084,0.042,0.126,0.127,0.126H96.354z"/>
		<path id="XMLID_1499_" fill="#FFFFFF" d="M107.061,28.776V24.13c0-1.12-0.549-1.858-1.604-1.858s-1.584,0.739-1.584,1.858v4.646
			c0,0.972-0.634,1.563-1.479,1.563c-0.866,0-1.479-0.591-1.479-1.563v-7.349c0-0.972,0.612-1.563,1.479-1.563
			c0.697,0,1.246,0.401,1.415,1.077h0.021c0.507-0.655,1.394-1.183,2.703-1.183c2.26,0,3.484,1.583,3.484,3.801v5.216
			c0,0.972-0.612,1.563-1.479,1.563C107.694,30.339,107.061,29.748,107.061,28.776z"/>
		<path id="XMLID_1477_" fill="#FFFFFF" d="M111.897,27.509c-0.232-0.739-0.338-1.415-0.338-2.408s0.105-1.668,0.338-2.407
			c0.612-1.88,2.196-2.936,4.435-2.936c2.239,0,3.822,1.056,4.436,2.936c0.232,0.739,0.338,1.415,0.338,2.407
			s-0.105,1.668-0.338,2.408c-0.613,1.879-2.196,2.936-4.436,2.936C114.094,30.445,112.51,29.389,111.897,27.509z M117.916,26.813
			c0.148-0.444,0.19-1.014,0.19-1.711c0-0.697-0.042-1.267-0.19-1.71c-0.232-0.718-0.76-1.141-1.584-1.141
			c-0.823,0-1.352,0.422-1.584,1.141c-0.147,0.443-0.189,1.014-0.189,1.71c0,0.697,0.042,1.267,0.189,1.711
			c0.232,0.718,0.761,1.14,1.584,1.14C117.156,27.953,117.684,27.53,117.916,26.813z"/>
		<path id="XMLID_1422_" fill="#FFFFFF" d="M122.943,29.474c-0.508-0.317-0.719-0.697-0.719-1.183c0-0.655,0.549-1.182,1.225-1.182
			c0.275,0,0.528,0.084,0.866,0.274c0.739,0.422,1.521,0.739,2.513,0.739c1.078,0,1.585-0.38,1.585-0.95
			c0-0.486-0.275-0.739-1.479-0.866l-1.12-0.127c-2.217-0.253-3.337-1.352-3.337-3.125c0-2.006,1.542-3.294,4.225-3.294
			c1.14,0,2.238,0.232,3.104,0.676c0.57,0.295,0.865,0.654,0.865,1.161c0,0.655-0.465,1.162-1.161,1.162
			c-0.211,0-0.443-0.063-0.845-0.253c-0.634-0.295-1.33-0.443-2.069-0.443c-0.908,0-1.289,0.317-1.289,0.803
			c0,0.464,0.254,0.718,1.415,0.845l1.119,0.126c2.408,0.274,3.4,1.394,3.4,3.104c0,2.091-1.668,3.506-4.562,3.506
			C125.076,30.445,123.787,30.001,122.943,29.474z"/>
		<path id="XMLID_1418_" fill="#FFFFFF" d="M137.113,28.291l3.886-10.75c0.401-1.141,1.035-1.816,2.134-1.816
			c1.098,0,1.753,0.676,2.153,1.816l3.823,10.75c0.063,0.169,0.105,0.38,0.105,0.592c0,0.887-0.719,1.457-1.5,1.457
			c-0.676,0-1.225-0.401-1.457-1.098l-0.591-1.753h-5.132l-0.57,1.753c-0.232,0.697-0.781,1.098-1.457,1.098
			c-0.782,0-1.5-0.57-1.5-1.457C137.008,28.671,137.05,28.46,137.113,28.291z M144.801,24.848l-1.647-5.026h-0.063l-1.668,5.026
			H144.801z"/>
		<path id="XMLID_1415_" fill="#FFFFFF" d="M150.376,17.288c0-0.929,0.739-1.668,1.669-1.668c0.929,0,1.668,0.739,1.668,1.668
			s-0.739,1.668-1.668,1.668C151.115,18.956,150.376,18.217,150.376,17.288z M150.566,28.776v-7.349
			c0-0.972,0.612-1.563,1.479-1.563c0.845,0,1.479,0.591,1.479,1.563v7.349c0,0.972-0.634,1.563-1.479,1.563
			C151.179,30.339,150.566,29.748,150.566,28.776z"/>
		<path id="XMLID_1396_" fill="#FFFFFF" d="M155.656,28.776v-7.349c0-0.972,0.612-1.563,1.478-1.563
			c0.697,0,1.268,0.401,1.437,1.141v0.021h0.021c0.464-0.676,1.415-1.267,2.576-1.267c0.465,0,0.803,0.084,1.077,0.211
			c0.528,0.253,0.781,0.697,0.781,1.204c0,0.866-0.591,1.5-1.457,1.5c-0.211,0-0.422-0.042-0.634-0.105
			c-0.211-0.063-0.527-0.105-0.76-0.105c-1.099,0-1.563,0.781-1.563,2.154v4.16c0,0.972-0.635,1.563-1.479,1.563
			C156.269,30.339,155.656,29.748,155.656,28.776z"/>
		<path id="XMLID_1393_" fill="#FFFFFF" d="M163.555,27.53c-0.212-0.633-0.338-1.373-0.338-2.429c0-1.077,0.105-1.816,0.316-2.45
			c0.612-1.858,2.238-2.893,4.414-2.893c2.26,0,3.822,1.056,4.414,2.872c0.232,0.718,0.338,1.436,0.338,2.386
			c0,0.57-0.359,0.972-0.972,0.972H166.3c-0.085,0-0.127,0.042-0.127,0.126c0,0.211,0.042,0.401,0.105,0.592
			c0.275,0.866,1.057,1.33,2.112,1.33c0.697,0,1.373-0.232,1.922-0.528c0.359-0.211,0.718-0.317,1.014-0.317
			c0.612,0,1.077,0.465,1.077,1.098c0,0.444-0.211,0.803-0.591,1.056c-0.972,0.676-2.112,1.098-3.696,1.098
			C165.751,30.445,164.146,29.368,163.555,27.53z M169.658,24.024c0.084,0,0.127-0.042,0.127-0.126c0-0.338-0.043-0.549-0.106-0.76
			c-0.232-0.718-0.866-1.119-1.71-1.119c-0.846,0-1.458,0.401-1.69,1.119c-0.063,0.211-0.105,0.422-0.105,0.76
			c0,0.084,0.042,0.126,0.127,0.126H169.658z"/>
		<path id="XMLID_1391_" fill="#FFFFFF" d="M174.536,29.474c-0.507-0.317-0.718-0.697-0.718-1.183c0-0.655,0.549-1.182,1.225-1.182
			c0.274,0,0.528,0.084,0.866,0.274c0.739,0.422,1.521,0.739,2.513,0.739c1.077,0,1.584-0.38,1.584-0.95
			c0-0.486-0.274-0.739-1.478-0.866l-1.12-0.127c-2.217-0.253-3.337-1.352-3.337-3.125c0-2.006,1.542-3.294,4.225-3.294
			c1.14,0,2.238,0.232,3.104,0.676c0.57,0.295,0.865,0.654,0.865,1.161c0,0.655-0.465,1.162-1.161,1.162
			c-0.212,0-0.443-0.063-0.845-0.253c-0.634-0.295-1.33-0.443-2.07-0.443c-0.908,0-1.288,0.317-1.288,0.803
			c0,0.464,0.254,0.718,1.415,0.845l1.119,0.126c2.408,0.274,3.4,1.394,3.4,3.104c0,2.091-1.668,3.506-4.562,3.506
			C176.669,30.445,175.381,30.001,174.536,29.474z"/>
	</g>
</g>
</svg>
